<svg width="26" height="26" viewBox="0 0 26 26" fill="none" xmlns="http://www.w3.org/2000/svg">
<path d="M22.5999 9.40002H11.7999C10.4744 9.40002 9.3999 10.4745 9.3999 11.8V22.6C9.3999 23.9255 10.4744 25 11.7999 25H22.5999C23.9254 25 24.9999 23.9255 24.9999 22.6V11.8C24.9999 10.4745 23.9254 9.40002 22.5999 9.40002Z" stroke="#F6F6F6" stroke-width="2" stroke-linecap="round" stroke-linejoin="round"/>
<path d="M4.6 16.6H3.4C2.76348 16.6 2.15303 16.3471 1.70294 15.8971C1.25286 15.447 1 14.8365 1 14.2V3.4C1 2.76348 1.25286 2.15303 1.70294 1.70294C2.15303 1.25286 2.76348 1 3.4 1H14.2C14.8365 1 15.447 1.25286 15.8971 1.70294C16.3471 2.15303 16.6 2.76348 16.6 3.4V4.6" stroke="#F6F6F6" stroke-width="2" stroke-linecap="round" stroke-linejoin="round"/>
</svg>
