<svg width="26" height="26" viewBox="0 0 26 26" fill="none" xmlns="http://www.w3.org/2000/svg">
<path d="M22.3333 1H3.66667C2.19391 1 1 2.19391 1 3.66667V22.3333C1 23.8061 2.19391 25 3.66667 25H22.3333C23.8061 25 25 23.8061 25 22.3333V3.66667C25 2.19391 23.8061 1 22.3333 1Z" stroke="#F6F6F6" stroke-width="2" stroke-linecap="round" stroke-linejoin="round"/>
<path d="M8.33337 10.3333C9.43794 10.3333 10.3334 9.43788 10.3334 8.33331C10.3334 7.22874 9.43794 6.33331 8.33337 6.33331C7.2288 6.33331 6.33337 7.22874 6.33337 8.33331C6.33337 9.43788 7.2288 10.3333 8.33337 10.3333Z" stroke="#F6F6F6" stroke-width="2" stroke-linecap="round" stroke-linejoin="round"/>
<path d="M25 17L18.3333 10.3333L3.66663 25" stroke="#F6F6F6" stroke-width="2" stroke-linecap="round" stroke-linejoin="round"/>
</svg>
