<svg width="22" height="22" viewBox="0 0 22 22" fill="none" xmlns="http://www.w3.org/2000/svg">
<path d="M16.1716 1.91421C16.4343 1.65157 16.7461 1.44323 17.0892 1.30109C17.4324 1.15894 17.8002 1.08578 18.1716 1.08578C18.5431 1.08578 18.9109 1.15894 19.254 1.30109C19.5972 1.44323 19.909 1.65157 20.1716 1.91421C20.4343 2.17686 20.6426 2.48866 20.7848 2.83182C20.9269 3.17498 21.0001 3.54278 21.0001 3.91421C21.0001 4.28565 20.9269 4.65344 20.7848 4.9966C20.6426 5.33976 20.4343 5.65157 20.1716 5.91421L6.67163 19.4142L1.17163 20.9142L2.67163 15.4142L16.1716 1.91421Z" stroke="#F6F6F6" stroke-width="2" stroke-linecap="round" stroke-linejoin="round"/>
</svg>
