<svg width="108" height="109" viewBox="0 0 108 109" fill="none" xmlns="http://www.w3.org/2000/svg">
<path d="M54 94.8127C76.3675 94.8127 94.5 76.6202 94.5 54.1787C94.5 31.7372 76.3675 13.5448 54 13.5448C31.6325 13.5448 13.5 31.7372 13.5 54.1787C13.5 76.6202 31.6325 94.8127 54 94.8127Z" stroke="white" stroke-width="2" stroke-miterlimit="10"/>
<path d="M54 67.7231C63.3198 67.7231 70.875 60.1429 70.875 50.7923C70.875 41.4416 63.3198 33.8615 54 33.8615C44.6802 33.8615 37.125 41.4416 37.125 50.7923C37.125 60.1429 44.6802 67.7231 54 67.7231Z" stroke="white" stroke-width="2" stroke-miterlimit="10"/>
<path d="M26.915 84.389C29.4573 79.3741 33.3331 75.1629 38.1134 72.2215C42.8937 69.28 48.392 67.7232 53.9998 67.7231C59.6075 67.7231 65.1058 69.28 69.8861 72.2214C74.6664 75.1628 78.5422 79.374 81.0845 84.3889" stroke="white" stroke-width="2" stroke-linecap="round" stroke-linejoin="round"/>
</svg>
